<svg width="58" height="42" viewBox="0 0 58 42" fill="none" xmlns="http://www.w3.org/2000/svg">
<rect x="0.5" y="0.5" width="57" height="41" rx="11.5"  stroke="#009688"/>
<path d="M25 32.2119C23.9 32.2119 23.01 33.38 23.01 34.8076C23.01 36.2353 23.9 37.4033 25 37.4033C26.1 37.4033 27 36.2353 27 34.8076C27 33.38 26.1 32.2119 25 32.2119ZM19 11.4463V14.042H21L24.6 23.8927L23.25 27.0724C23.09 27.4358 23 27.8641 23 28.3184C23 29.746 23.9 30.9141 25 30.9141H37V28.3184H25.42C25.28 28.3184 25.17 28.1756 25.17 27.9939L25.2 27.8382L26.1 25.7227H33.55C34.3 25.7227 34.96 25.1905 35.3 24.3859L38.88 15.9628C38.96 15.7811 39 15.5605 39 15.3398C39 14.626 38.55 14.042 38 14.042H23.21L22.27 11.4463H19ZM35 32.2119C33.9 32.2119 33.01 33.38 33.01 34.8076C33.01 36.2353 33.9 37.4033 35 37.4033C36.1 37.4033 37 36.2353 37 34.8076C37 33.38 36.1 32.2119 35 32.2119Z" fill="#009688"/>
</svg>
